<?xml version="1.0" encoding="UTF-8"?>
<svg xmlns="http://www.w3.org/2000/svg" xmlns:xlink="http://www.w3.org/1999/xlink" width="256pt" height="256pt" viewBox="0 0 256 256" version="1.1">
<g id="surface1">
<path style=" stroke:none;fill-rule:nonzero;fill:rgb(86.666667%,63.529412%,25.882353%);fill-opacity:1;" d="M 55.183594 157.164062 C 72.835938 225.753906 137.527344 263.953125 206.101562 246.296875 L 175.214844 126.277344 Z M 55.183594 157.164062 "/>
<path style=" stroke:none;fill-rule:nonzero;fill:rgb(0%,31.764706%,36.862745%);fill-opacity:1;" d="M 151.214844 4.828125 C 80.859375 18.960938 38.695312 82.328125 52.832031 152.683594 L 175.949219 127.945312 Z M 151.214844 4.828125 "/>
<path style=" stroke:none;fill-rule:nonzero;fill:rgb(3.921569%,3.921569%,3.921569%);fill-opacity:1;" d="M 142.832031 84.425781 L 131.609375 84.425781 L 131.609375 97.777344 L 154.050781 97.777344 L 154.050781 84.425781 Z M 142.832031 84.425781 "/>
<path style=" stroke:none;fill-rule:nonzero;fill:rgb(3.921569%,3.921569%,3.921569%);fill-opacity:1;" d="M 114.523438 100.578125 C 114.523438 100.578125 97.796875 100.578125 97.53125 100.578125 C 94.269531 100.578125 91.613281 103.230469 91.613281 106.492188 L 91.613281 157.949219 C 91.613281 161.21875 94.261719 163.859375 97.53125 163.859375 C 100.796875 163.859375 103.445312 161.222656 103.445312 157.949219 L 103.445312 113.746094 L 114.523438 113.746094 C 117.816406 113.746094 120.484375 110.804688 120.484375 107.167969 C 120.484375 103.527344 117.816406 100.578125 114.523438 100.578125 Z M 114.523438 100.578125 "/>
<path style=" stroke:none;fill-rule:nonzero;fill:rgb(3.921569%,3.921569%,3.921569%);fill-opacity:1;" d="M 109.417969 161.609375 C 109.417969 158.675781 107.046875 156.300781 104.113281 156.300781 L 90.824219 156.300781 C 87.894531 156.300781 85.515625 158.675781 85.515625 161.609375 C 85.515625 161.640625 85.527344 161.671875 85.527344 161.703125 C 85.453125 162.027344 85.398438 162.355469 85.398438 162.699219 L 85.398438 169.164062 C 85.398438 171.523438 87.308594 173.433594 89.667969 173.433594 C 92.023438 173.433594 93.929688 171.523438 93.929688 169.164062 L 93.929688 166.914062 L 100.882812 166.914062 L 100.882812 169.164062 C 100.882812 171.523438 102.792969 173.433594 105.144531 173.433594 C 107.503906 173.433594 109.414062 171.523438 109.414062 169.164062 L 109.414062 162.699219 C 109.414062 162.523438 109.382812 162.339844 109.363281 162.152344 C 109.386719 161.976562 109.417969 161.796875 109.417969 161.609375 Z M 109.417969 161.609375 "/>
<path style=" stroke:none;fill-rule:nonzero;fill:rgb(3.921569%,3.921569%,3.921569%);fill-opacity:1;" d="M 171.136719 100.578125 C 171.136719 100.578125 187.859375 100.578125 188.128906 100.578125 C 191.390625 100.578125 194.050781 103.230469 194.050781 106.492188 L 194.050781 157.949219 C 194.050781 161.21875 191.390625 163.859375 188.128906 163.859375 C 184.863281 163.859375 182.214844 161.222656 182.214844 157.949219 L 182.214844 113.746094 L 171.128906 113.746094 C 167.84375 113.746094 165.175781 110.804688 165.175781 107.167969 C 165.175781 103.527344 167.84375 100.578125 171.136719 100.578125 Z M 171.136719 100.578125 "/>
<path style=" stroke:none;fill-rule:nonzero;fill:rgb(3.921569%,3.921569%,3.921569%);fill-opacity:1;" d="M 176.238281 161.609375 C 176.238281 158.675781 178.609375 156.300781 181.542969 156.300781 L 194.839844 156.300781 C 197.765625 156.300781 200.136719 158.675781 200.136719 161.609375 C 200.136719 161.640625 200.128906 161.671875 200.128906 161.703125 C 200.210938 162.027344 200.253906 162.355469 200.253906 162.699219 L 200.253906 169.164062 C 200.253906 171.523438 198.351562 173.433594 195.992188 173.433594 C 193.628906 173.433594 191.71875 171.523438 191.71875 169.164062 L 191.71875 166.914062 L 184.769531 166.914062 L 184.769531 169.164062 C 184.769531 171.523438 182.855469 173.433594 180.503906 173.433594 C 178.148438 173.433594 176.234375 171.523438 176.234375 169.164062 L 176.234375 162.699219 C 176.234375 162.523438 176.265625 162.339844 176.296875 162.152344 C 176.277344 161.976562 176.238281 161.796875 176.238281 161.609375 Z M 176.238281 161.609375 "/>
<path style=" stroke:none;fill-rule:nonzero;fill:rgb(3.921569%,3.921569%,3.921569%);fill-opacity:1;" d="M 132.34375 206.136719 L 132.34375 163.679688 C 132.34375 159.609375 129.382812 156.296875 125.730469 156.296875 C 122.074219 156.296875 119.113281 159.609375 119.113281 163.679688 L 119.113281 206.136719 C 113.617188 208.660156 109.785156 214.21875 109.785156 220.683594 C 127.675781 220.683594 128.972656 220.683594 141.671875 220.683594 C 141.671875 214.21875 137.84375 208.660156 132.34375 206.136719 Z M 132.34375 206.136719 "/>
<path style=" stroke:none;fill-rule:nonzero;fill:rgb(3.921569%,3.921569%,3.921569%);fill-opacity:1;" d="M 166.550781 206.136719 L 166.550781 163.679688 C 166.550781 159.609375 163.578125 156.296875 159.941406 156.296875 C 156.277344 156.296875 153.320312 159.609375 153.320312 163.679688 L 153.320312 206.136719 C 147.828125 208.660156 143.992188 214.21875 143.992188 220.683594 C 156.691406 220.683594 157.996094 220.683594 175.886719 220.683594 C 175.875 214.21875 172.050781 208.660156 166.550781 206.136719 Z M 166.550781 206.136719 "/>
<path style=" stroke:none;fill-rule:nonzero;fill:rgb(3.921569%,3.921569%,3.921569%);fill-opacity:1;" d="M 207.695312 62.289062 C 206.082031 62.289062 204.679688 63.179688 203.921875 64.488281 L 194.492188 64.488281 C 193.421875 61.78125 190.792969 59.851562 187.703125 59.851562 C 184.613281 59.851562 181.984375 61.777344 180.910156 64.488281 L 104.753906 64.488281 C 103.683594 61.78125 101.050781 59.851562 97.960938 59.851562 C 94.871094 59.851562 92.242188 61.777344 91.167969 64.488281 L 81.742188 64.488281 C 80.988281 63.179688 79.585938 62.289062 77.960938 62.289062 C 75.539062 62.289062 73.574219 64.253906 73.574219 66.679688 C 73.574219 69.101562 75.539062 71.066406 77.960938 71.066406 C 79.585938 71.066406 80.988281 70.179688 81.742188 68.875 L 90.867188 68.875 C 91.644531 72.089844 94.511719 74.484375 97.960938 74.484375 C 101.414062 74.484375 104.285156 72.089844 105.058594 68.875 L 180.605469 68.875 C 181.386719 72.089844 184.265625 74.484375 187.707031 74.484375 C 191.152344 74.484375 194.039062 72.089844 194.808594 68.875 L 203.921875 68.875 C 204.683594 70.179688 206.082031 71.066406 207.695312 71.066406 C 210.121094 71.066406 212.089844 69.101562 212.089844 66.679688 C 212.089844 64.257812 210.117188 62.289062 207.695312 62.289062 Z M 207.695312 62.289062 "/>
<path style=" stroke:none;fill-rule:nonzero;fill:rgb(7.843137%,7.843137%,7.843137%);fill-opacity:1;" d="M 160.144531 95.457031 L 125.519531 95.457031 C 117.441406 95.457031 110.886719 102.015625 110.886719 110.09375 L 110.886719 151.304688 C 110.886719 159.390625 117.441406 165.945312 125.519531 165.945312 L 160.144531 165.945312 C 168.222656 165.945312 174.78125 159.390625 174.78125 151.304688 L 174.78125 110.09375 C 174.78125 102.015625 168.222656 95.457031 160.144531 95.457031 Z M 160.144531 95.457031 "/>
<path style=" stroke:none;fill-rule:nonzero;fill:rgb(7.843137%,7.843137%,7.843137%);fill-opacity:1;" d="M 142.949219 38.148438 C 142.90625 38.148438 142.867188 38.15625 142.832031 38.15625 C 142.792969 38.15625 142.75 38.148438 142.707031 38.148438 C 125.671875 38.148438 111.863281 49.890625 111.863281 64.371094 C 111.863281 78.847656 125.671875 90.582031 142.707031 90.582031 C 142.753906 90.582031 142.792969 90.578125 142.832031 90.578125 C 142.867188 90.578125 142.914062 90.582031 142.949219 90.582031 C 159.992188 90.582031 173.800781 78.847656 173.800781 64.371094 C 173.804688 49.890625 159.992188 38.148438 142.949219 38.148438 Z M 142.949219 38.148438 "/>
<path style=" stroke:none;fill-rule:nonzero;fill:rgb(100%,100%,100%);fill-opacity:1;" d="M 138.820312 138.722656 L 138.898438 136.542969 C 141.074219 136.199219 143.164062 135.390625 145 134.171875 L 146.464844 135.742188 C 146.605469 135.890625 146.804688 135.984375 147.011719 136 C 147.222656 136.011719 147.417969 135.921875 147.574219 135.78125 L 150.3125 133.230469 C 150.632812 132.929688 150.648438 132.4375 150.351562 132.117188 L 148.84375 130.507812 C 150.121094 128.769531 151.015625 126.78125 151.457031 124.683594 L 153.675781 124.757812 C 154.105469 124.777344 154.46875 124.4375 154.480469 124 L 154.609375 120.265625 C 154.621094 119.828125 154.285156 119.460938 153.847656 119.445312 L 151.636719 119.371094 C 151.324219 117.234375 150.5625 115.171875 149.398438 113.339844 L 150.964844 111.875 C 151.277344 111.578125 151.300781 111.074219 151.003906 110.765625 L 148.453125 108.03125 C 148.304688 107.875 148.113281 107.785156 147.894531 107.777344 C 147.683594 107.769531 147.488281 107.847656 147.335938 107.992188 L 145.804688 109.429688 C 144.058594 108.101562 142.046875 107.160156 139.910156 106.679688 L 139.980469 104.695312 C 139.996094 104.257812 139.652344 103.898438 139.222656 103.882812 L 135.480469 103.753906 C 135.046875 103.738281 134.683594 104.074219 134.667969 104.511719 L 134.605469 106.429688 C 132.425781 106.71875 130.328125 107.476562 128.453125 108.667969 L 127.109375 107.230469 C 126.808594 106.90625 126.316406 106.890625 125.992188 107.191406 L 123.257812 109.742188 C 123.109375 109.890625 123.015625 110.089844 123.011719 110.300781 C 123.003906 110.507812 123.074219 110.707031 123.21875 110.863281 L 124.523438 112.257812 C 123.140625 114.050781 122.175781 116.132812 121.710938 118.34375 L 119.824219 118.28125 C 119.390625 118.265625 119.027344 118.609375 119.011719 119.039062 L 118.882812 122.773438 C 118.871094 123.210938 119.210938 123.578125 119.644531 123.59375 L 121.53125 123.648438 C 121.847656 125.871094 122.65625 128.011719 123.894531 129.882812 L 122.449219 131.226562 C 122.152344 131.515625 122.128906 132.03125 122.417969 132.339844 L 124.96875 135.066406 C 125.265625 135.390625 125.761719 135.410156 126.085938 135.109375 L 127.554688 133.742188 C 129.347656 135.070312 131.402344 135.992188 133.578125 136.425781 L 133.507812 138.546875 C 133.492188 138.988281 133.828125 139.355469 134.265625 139.363281 L 138 139.484375 C 138.445312 139.492188 138.804688 139.152344 138.820312 138.722656 Z M 128.457031 121.332031 C 128.609375 116.75 132.449219 113.160156 137.027344 113.320312 C 141.609375 113.476562 145.195312 117.316406 145.046875 121.894531 C 144.886719 126.480469 141.046875 130.066406 136.464844 129.910156 C 131.882812 129.753906 128.292969 125.910156 128.457031 121.332031 Z M 136.640625 124.761719 C 134.902344 124.703125 133.542969 123.246094 133.609375 121.515625 C 133.664062 119.773438 135.117188 118.414062 136.859375 118.472656 C 138.59375 118.535156 139.957031 119.996094 139.898438 121.722656 C 139.832031 123.460938 138.378906 124.824219 136.640625 124.761719 Z M 153.574219 153.976562 L 154.105469 152.960938 C 155.324219 153.324219 156.609375 153.433594 157.863281 153.261719 L 158.214844 154.417969 C 158.300781 154.648438 158.550781 154.78125 158.785156 154.699219 L 160.824219 154.058594 C 161.066406 153.988281 161.191406 153.746094 161.117188 153.503906 L 160.742188 152.308594 C 161.851562 151.714844 162.824219 150.875 163.578125 149.871094 L 164.660156 150.433594 C 164.769531 150.496094 164.890625 150.496094 165.007812 150.464844 C 165.121094 150.421875 165.21875 150.347656 165.269531 150.242188 L 166.257812 148.339844 C 166.367188 148.132812 166.289062 147.851562 166.070312 147.742188 L 164.941406 147.164062 C 165.296875 145.976562 165.40625 144.734375 165.246094 143.527344 L 166.457031 143.148438 C 166.699219 143.066406 166.824219 142.8125 166.75 142.582031 L 166.109375 140.542969 C 166.035156 140.300781 165.785156 140.179688 165.554688 140.246094 L 164.34375 140.625 C 163.765625 139.53125 162.960938 138.574219 161.988281 137.808594 L 162.546875 136.726562 C 162.664062 136.496094 162.574219 136.230469 162.359375 136.121094 L 160.453125 135.128906 C 160.347656 135.074219 160.234375 135.066406 160.117188 135.097656 C 160.003906 135.136719 159.902344 135.210938 159.851562 135.316406 L 159.289062 136.390625 C 158.101562 136 156.839844 135.886719 155.59375 136.03125 L 155.25 134.949219 C 155.175781 134.71875 154.925781 134.585938 154.695312 134.65625 L 152.65625 135.3125 C 152.417969 135.382812 152.28125 135.632812 152.359375 135.875 L 152.691406 136.925781 C 151.570312 137.488281 150.582031 138.304688 149.804688 139.296875 L 148.808594 138.765625 C 148.585938 138.65625 148.3125 138.742188 148.195312 138.964844 L 147.210938 140.863281 C 147.15625 140.972656 147.144531 141.09375 147.175781 141.203125 C 147.21875 141.316406 147.292969 141.425781 147.398438 141.476562 L 148.367188 141.980469 C 147.972656 143.210938 147.851562 144.515625 148.019531 145.796875 L 146.984375 146.101562 C 146.75 146.179688 146.621094 146.433594 146.699219 146.664062 L 147.335938 148.703125 C 147.410156 148.945312 147.660156 149.066406 147.902344 149.003906 L 148.921875 148.671875 C 149.515625 149.820312 150.363281 150.800781 151.382812 151.585938 L 150.863281 152.589844 C 150.753906 152.792969 150.84375 153.082031 151.058594 153.183594 L 152.953125 154.175781 C 153.183594 154.28125 153.464844 154.195312 153.574219 153.976562 Z M 152.128906 146.125 C 151.339844 143.621094 152.71875 140.960938 155.21875 140.179688 C 157.710938 139.394531 160.382812 140.773438 161.167969 143.269531 C 161.957031 145.769531 160.570312 148.429688 158.078125 149.214844 C 155.578125 150.003906 152.917969 148.625 152.128906 146.125 Z M 157.28125 146.386719 C 156.335938 146.691406 155.332031 146.164062 155.03125 145.21875 C 154.726562 144.257812 155.25 143.253906 156.199219 142.960938 C 157.152344 142.648438 158.164062 143.179688 158.457031 144.125 C 158.761719 145.074219 158.226562 146.09375 157.28125 146.386719 Z M 157.28125 146.386719 "/>
<path style=" stroke:none;fill-rule:nonzero;fill:rgb(100%,100%,100%);fill-opacity:1;" d="M 128.6875 54.734375 C 132.257812 54.734375 135.152344 57.625 135.152344 61.199219 C 135.152344 64.765625 132.257812 67.660156 128.6875 67.660156 C 125.117188 67.660156 122.222656 64.765625 122.222656 61.199219 C 122.222656 57.625 125.117188 54.734375 128.6875 54.734375 Z M 128.6875 54.734375 "/>
<path style=" stroke:none;fill-rule:nonzero;fill:rgb(17.647059%,16.078431%,16.470588%);fill-opacity:1;" d="M 128.6875 58.269531 C 130.304688 58.269531 131.613281 59.578125 131.613281 61.199219 C 131.613281 62.8125 130.304688 64.125 128.6875 64.125 C 127.070312 64.125 125.761719 62.8125 125.761719 61.199219 C 125.761719 59.578125 127.070312 58.269531 128.6875 58.269531 Z M 128.6875 58.269531 "/>
<path style=" stroke:none;fill-rule:nonzero;fill:rgb(100%,100%,100%);fill-opacity:1;" d="M 156.972656 54.734375 C 160.550781 54.734375 163.441406 57.625 163.441406 61.199219 C 163.441406 64.765625 160.550781 67.660156 156.972656 67.660156 C 153.40625 67.660156 150.511719 64.765625 150.511719 61.199219 C 150.511719 57.625 153.40625 54.734375 156.972656 54.734375 Z M 156.972656 54.734375 "/>
<path style=" stroke:none;fill-rule:nonzero;fill:rgb(17.647059%,16.078431%,16.470588%);fill-opacity:1;" d="M 156.972656 58.273438 C 158.589844 58.273438 159.898438 59.582031 159.898438 61.195312 C 159.898438 62.808594 158.589844 64.121094 156.972656 64.121094 C 155.363281 64.121094 154.050781 62.808594 154.050781 61.195312 C 154.050781 59.582031 155.363281 58.273438 156.972656 58.273438 Z M 156.972656 58.273438 "/>
<path style=" stroke:none;fill-rule:nonzero;fill:rgb(100%,100%,100%);fill-opacity:1;" d="M 152.339844 74.664062 L 133.316406 74.664062 C 131.902344 74.664062 130.753906 75.808594 130.753906 77.222656 C 130.753906 78.640625 131.902344 79.785156 133.316406 79.785156 L 152.339844 79.785156 C 153.765625 79.785156 154.90625 78.644531 154.90625 77.222656 C 154.898438 75.808594 153.757812 74.664062 152.339844 74.664062 Z M 152.339844 74.664062 "/>
</g>
</svg>
